<svg xmlns="http://www.w3.org/2000/svg" viewBox="0 0 3924 1451">
  <path d="M0 0 C1.06 0.464 2.119 0.928 3.211 1.406 C3.609 1.587 3.609 1.587 5.625 2.5 C5.625 3.606 5.626 4.712 5.626 5.852 C5.64 43.729 5.654 81.606 5.669 119.483 C5.669 119.865 5.669 119.865 5.67 121.796 C5.702 203.575 5.739 285.354 5.784 367.133 C5.785 368.949 5.786 370.766 5.787 372.583 C5.808 410.722 5.83 448.861 5.852 487 C5.864 506.16 5.875 525.319 5.886 544.478 C5.887 547.368 5.889 550.258 5.891 553.148 C5.916 597.64 5.94 642.133 5.955 686.626 C5.956 687.582 5.956 688.538 5.956 689.524 C5.962 704.942 5.967 720.361 5.972 735.78 C5.987 780.2 6.004 824.621 6.031 869.041 C6.032 869.955 6.032 870.869 6.033 871.811 C6.045 891.874 6.058 911.937 6.072 931.999 C6.077 940.073 6.083 948.146 6.088 956.219 C6.089 957.103 6.089 957.986 6.09 958.896 C6.109 987.346 6.118 1015.795 6.123 1044.244 C6.128 1072.912 6.142 1101.579 6.168 1130.247 C6.172 1134.213 6.176 1138.178 6.179 1142.144 C6.18 1142.532 6.18 1142.532 6.181 1144.499 C6.192 1156.786 6.193 1169.073 6.189 1181.36 C6.186 1193.455 6.194 1205.55 6.212 1217.645 C6.222 1224.11 6.227 1230.574 6.218 1237.039 C6.211 1242.93 6.217 1248.82 6.234 1254.711 C6.238 1256.82 6.237 1258.929 6.23 1261.037 C6.134 1292.921 11.538 1325.421 32.625 1350.5 C33.322 1351.36 34.02 1352.22 34.738 1353.105 C52.062 1373.533 75.376 1381.467 100.625 1387.5 C100.625 1393.44 100.625 1399.38 100.625 1405.5 C-74.275 1405.5 -249.175 1405.5 -429.375 1405.5 C-429.375 1399.56 -429.375 1393.62 -429.375 1387.5 C-428.71 1387.33 -428.71 1387.33 -425.344 1386.469 C-409.244 1382.205 -394.8 1376.956 -382.375 1365.5 C-381.484 1364.701 -380.594 1363.902 -379.676 1363.078 C-355.629 1340.406 -347.143 1307.545 -345.375 1275.5 C-345.238 1269.585 -345.239 1263.673 -345.246 1257.757 C-345.245 1255.978 -345.243 1254.2 -345.241 1252.422 C-345.236 1247.546 -345.238 1242.669 -345.24 1237.792 C-345.242 1232.483 -345.238 1227.174 -345.234 1221.865 C-345.229 1212.562 -345.228 1203.26 -345.229 1193.958 C-345.23 1180.124 -345.226 1166.291 -345.221 1152.457 C-345.211 1126.311 -345.209 1100.164 -345.208 1074.018 C-345.208 1071.135 -345.208 1068.253 -345.208 1065.37 C-345.208 1065.012 -345.208 1065.012 -345.208 1063.202 C-345.207 1047.337 -345.205 1031.471 -345.203 1015.606 C-345.202 1009.07 -345.201 1002.533 -345.2 995.997 C-345.199 995.274 -345.199 994.552 -345.199 993.808 C-345.193 952.426 -345.189 911.043 -345.189 869.661 C-345.189 868.112 -345.189 866.564 -345.189 865.016 C-345.189 858.026 -345.189 851.036 -345.19 844.046 C-345.19 840.93 -345.19 837.813 -345.19 834.696 C-345.19 833.136 -345.19 831.576 -345.19 830.016 C-345.19 780.703 -345.183 731.391 -345.169 682.078 C-345.166 669.656 -345.162 657.234 -345.159 644.813 C-345.159 644.43 -345.159 644.43 -345.158 642.495 C-345.152 618.906 -345.148 595.317 -345.147 571.729 C-345.147 570.988 -345.147 570.247 -345.147 569.483 C-345.146 553.214 -345.146 536.945 -345.146 520.676 C-345.146 514.854 -345.146 509.032 -345.146 503.21 C-345.146 501.761 -345.146 500.313 -345.146 498.865 C-345.147 475.821 -345.141 452.777 -345.132 429.733 C-345.123 405.864 -345.122 381.995 -345.128 358.126 C-345.132 344.376 -345.13 330.626 -345.121 316.876 C-345.115 307.68 -345.116 298.485 -345.123 289.289 C-345.127 284.057 -345.128 278.825 -345.12 273.592 C-344.986 181.823 -344.986 181.823 -372.375 151.5 C-373.04 150.73 -373.705 149.961 -374.391 149.168 C-389.978 132.224 -413.312 126.949 -435.438 125.812 C-436.747 125.761 -436.747 125.761 -443.375 125.5 C-443.375 118.57 -443.375 111.64 -443.375 104.5 C-440.803 103.857 -438.231 103.214 -435.659 102.571 C-433.288 101.978 -430.918 101.386 -428.547 100.793 C-422.341 99.241 -416.135 97.69 -409.928 96.139 C-406.17 95.199 -402.411 94.26 -398.652 93.32 C-398.265 93.223 -398.265 93.223 -396.305 92.733 C-385.801 90.108 -375.298 87.479 -364.795 84.849 C-358.967 83.389 -353.138 81.93 -347.309 80.471 C-343.349 79.479 -339.388 78.487 -335.427 77.494 C-311.289 71.442 -287.129 65.476 -262.965 59.524 C-237.605 53.278 -212.253 47.003 -186.906 40.703 C-185.246 40.291 -183.586 39.878 -181.926 39.465 C-168.555 36.142 -155.184 32.817 -141.813 29.491 C-136.752 28.232 -131.69 26.973 -126.629 25.715 C-125.798 25.508 -124.968 25.302 -124.112 25.089 C-110.395 21.678 -96.677 18.273 -82.957 14.871 C-74.769 12.84 -66.582 10.805 -58.397 8.762 C-52.317 7.245 -46.235 5.735 -40.152 4.227 C-37.683 3.614 -35.215 2.998 -32.747 2.38 C-29.401 1.542 -26.053 0.713 -22.705 -0.114 C-21.736 -0.359 -20.766 -0.604 -19.767 -0.857 C-18.873 -1.076 -17.98 -1.295 -17.059 -1.52 C-16.293 -1.711 -15.528 -1.902 -14.739 -2.098 C-9.124 -3.053 -5.19 -2.307 0 0 Z " fill="#ffffff" transform="translate(2525.375,3.5)"/>
  <path d="M0 0 C1.297 0.531 2.594 1.062 3.891 1.593 C7.195 2.949 10.492 4.32 13.785 5.702 C15.649 6.484 17.516 7.257 19.383 8.03 C20.498 8.504 21.613 8.979 22.762 9.469 C23.751 9.886 24.741 10.303 25.76 10.732 C28 12 28 12 29 15 C28.503 17.28 27.891 19.536 27.228 21.773 C27.127 22.118 27.127 22.118 26.615 23.867 C25.935 26.182 25.243 28.493 24.551 30.805 C24.066 32.448 23.581 34.092 23.098 35.736 C22.058 39.265 21.013 42.793 19.964 46.319 C18.297 51.924 16.641 57.531 14.989 63.14 C14.428 65.041 13.868 66.941 13.308 68.842 C13.029 69.786 12.751 70.73 12.464 71.703 C11.613 74.589 10.761 77.474 9.908 80.359 C5.061 96.763 0.284 113.186 -4.464 129.618 C-6.086 135.23 -7.711 140.841 -9.336 146.451 C-9.747 147.871 -10.158 149.291 -10.57 150.711 C-15.798 168.771 -21.055 186.823 -26.312 204.875 C-26.551 205.693 -26.789 206.511 -27.034 207.353 C-29.21 214.822 -31.385 222.29 -33.561 229.759 C-37.347 242.758 -41.131 255.757 -44.914 268.757 C-47.642 278.13 -50.37 287.502 -53.099 296.873 C-53.217 297.276 -53.217 297.276 -53.81 299.313 C-54.731 302.475 -55.652 305.638 -56.574 308.8 C-59.099 317.468 -61.621 326.136 -64.138 334.807 C-65.294 338.787 -66.452 342.767 -67.611 346.747 C-68.113 348.475 -68.615 350.203 -69.115 351.931 C-69.769 354.192 -70.427 356.452 -71.086 358.711 C-71.437 359.921 -71.788 361.13 -72.15 362.376 C-73 365 -73 365 -74 366 C-76.273 365.96 -78.544 365.839 -80.812 365.688 C-81.508 365.641 -82.203 365.595 -82.92 365.547 C-91.966 364.911 -100.983 363.952 -110 363 C-112.232 358.199 -113.055 353.215 -114.031 348.051 C-114.428 346.006 -114.825 343.961 -115.223 341.917 C-115.43 340.841 -115.638 339.765 -115.852 338.656 C-120.578 314.267 -125.92 290.086 -132 266 C-132.097 265.612 -132.097 265.612 -132.589 263.651 C-144.459 216.381 -159.884 169.974 -181 126 C-181.397 125.158 -181.794 124.316 -182.204 123.448 C-197.646 90.767 -218.011 61.077 -243 35 C-243.39 34.589 -243.39 34.589 -245.363 32.512 C-250.865 26.853 -256.791 21.864 -263 17 C-263.926 16.269 -264.851 15.538 -265.805 14.785 C-278.626 4.9 -292.347 -3.157 -307 -10 C-308.103 -10.522 -309.207 -11.044 -310.344 -11.582 C-339.203 -24.603 -370.556 -29.889 -402 -31 C-403.189 -31.043 -404.377 -31.085 -405.602 -31.129 C-470.439 -32.188 -536.675 -15.979 -585 29 C-585.364 29.331 -585.364 29.331 -587.207 31.008 C-614.075 56.472 -630.824 96.798 -632.126 133.563 C-632.221 137.792 -632.247 142.02 -632.25 146.25 C-632.251 147.005 -632.251 147.76 -632.252 148.538 C-632.173 204.059 -607.714 249.657 -569.5 288.688 C-565.136 293.008 -560.587 296.953 -555.781 300.773 C-552.982 303.015 -550.278 305.346 -547.562 307.688 C-504.974 343.178 -452.217 367.672 -401.988 390.207 C-398.434 391.802 -394.888 393.416 -391.344 395.035 C-369.222 405.101 -346.805 414.487 -324.436 423.986 C-312.409 429.096 -300.412 434.274 -288.436 439.502 C-285.391 440.83 -282.344 442.152 -279.296 443.473 C-248.116 456.991 -217.263 471.136 -186.766 486.133 C-184.132 487.426 -181.493 488.708 -178.855 489.992 C-166.524 496.034 -154.579 502.646 -142.672 509.48 C-139.454 511.31 -136.209 513.085 -132.959 514.856 C-101.486 532.045 -71.499 553.003 -44 576 C-43.473 576.44 -42.947 576.881 -42.404 577.334 C-26.013 591.085 -9.815 605.619 4 622 C4.772 622.883 5.544 623.766 6.34 624.676 C45.597 669.811 72.572 724.286 84 783 C84.096 783.485 84.096 783.485 84.58 785.942 C85.927 792.935 87.03 799.946 88 807 C88.075 807.538 88.075 807.538 88.458 810.259 C93.181 845.507 93.268 882.823 88 918 C87.828 919.154 87.657 920.309 87.48 921.498 C76.305 994.081 45.623 1063.87 -2 1120 C-2.859 1121.032 -3.717 1122.064 -4.574 1123.098 C-14.564 1135.092 -25.235 1146.325 -36.25 1157.375 C-36.722 1157.849 -37.194 1158.324 -37.68 1158.813 C-43.276 1164.434 -48.957 1169.862 -55 1175 C-55.964 1175.846 -56.928 1176.691 -57.922 1177.562 C-67.571 1185.879 -77.744 1193.453 -88 1201 C-88.63 1201.468 -89.26 1201.936 -89.91 1202.418 C-107.959 1215.807 -127.316 1227.208 -147 1238 C-147.789 1238.438 -148.577 1238.875 -149.39 1239.326 C-218.934 1277.813 -298.326 1297.332 -376.938 1305.25 C-377.762 1305.333 -378.587 1305.417 -379.437 1305.502 C-381.842 1305.742 -384.247 1305.974 -386.652 1306.203 C-386.991 1306.236 -386.991 1306.236 -388.704 1306.404 C-403.307 1307.752 -417.911 1308.166 -432.566 1308.203 C-434.313 1308.21 -436.06 1308.217 -437.807 1308.224 C-443.392 1308.244 -448.977 1308.248 -454.562 1308.25 C-455.517 1308.251 -456.471 1308.251 -457.454 1308.252 C-490.731 1308.266 -523.803 1307.493 -557 1305 C-557.986 1304.927 -558.972 1304.855 -559.988 1304.78 C-653.781 1297.838 -748.278 1282.911 -925 1218 C-923.748 1209.392 -922.248 1200.875 -920.479 1192.359 C-920.356 1191.758 -920.356 1191.758 -919.731 1188.715 C-919.053 1185.42 -918.373 1182.125 -917.692 1178.83 C-916.956 1175.27 -916.224 1171.709 -915.492 1168.148 C-914.225 1161.993 -912.956 1155.839 -911.686 1149.684 C-909.834 1140.714 -907.986 1131.743 -906.139 1122.771 C-903.336 1109.158 -900.532 1095.544 -897.726 1081.932 C-893.577 1061.805 -889.435 1041.676 -885.297 1021.547 C-884.985 1020.031 -884.674 1018.515 -884.362 1016.999 C-883.13 1011.006 -881.898 1005.012 -880.665 999.018 C-877.377 983.024 -874.087 967.029 -870.797 951.035 C-870.653 950.337 -870.51 949.639 -870.362 948.92 C-861.247 904.612 -852.125 860.306 -843 816 C-840.292 816.154 -837.585 816.31 -834.877 816.467 C-834.117 816.51 -833.357 816.553 -832.573 816.597 C-826.678 816.94 -820.81 817.433 -814.938 818.062 C-814.06 818.153 -813.183 818.244 -812.279 818.338 C-810.186 818.555 -808.093 818.777 -806 819 C-804.642 822.943 -803.479 826.869 -802.495 830.921 C-802.354 831.498 -802.354 831.498 -801.64 834.416 C-801.339 835.658 -801.037 836.9 -800.727 838.18 C-800.068 840.87 -799.407 843.56 -798.746 846.25 C-798.575 846.949 -798.403 847.648 -798.226 848.368 C-791.567 875.481 -784.666 902.446 -776 929 C-775.698 929.925 -775.397 930.85 -775.086 931.804 C-766.892 956.864 -758.366 981.744 -748 1006 C-747.521 1007.121 -747.043 1008.242 -746.55 1009.397 C-735.41 1035.299 -723.366 1060.722 -709 1085 C-708.438 1085.956 -707.876 1086.912 -707.297 1087.897 C-692.651 1112.731 -676.049 1136.332 -657 1158 C-656.199 1158.913 -655.399 1159.825 -654.574 1160.766 C-642.351 1174.377 -629.525 1187.84 -615 1199 C-613.9 1199.908 -612.804 1200.819 -611.711 1201.734 C-571.052 1235.52 -519.242 1257.056 -467 1264 C-466.365 1264.086 -465.73 1264.172 -465.076 1264.261 C-450.869 1266.135 -436.752 1266.36 -422.438 1266.312 C-421.287 1266.311 -420.137 1266.309 -418.952 1266.307 C-402.449 1266.263 -386.283 1265.93 -370 1263 C-368.971 1262.823 -367.942 1262.646 -366.882 1262.464 C-330.754 1256.146 -295.09 1244.447 -265 1223 C-264.708 1222.792 -264.708 1222.792 -263.229 1221.739 C-227.34 1195.834 -204.463 1159.591 -197 1116 C-190.402 1073.919 -203.194 1030.401 -227.419 995.983 C-230.457 991.856 -233.7 987.918 -237 984 C-237.943 982.853 -238.886 981.706 -239.828 980.559 C-249.608 968.78 -260.24 957.637 -272.285 948.156 C-274.74 946.207 -277.111 944.185 -279.474 942.127 C-310.397 915.325 -347.21 894.891 -383 875.438 C-383.863 874.968 -384.726 874.499 -385.615 874.016 C-405.759 863.137 -426.189 852.824 -446.67 842.6 C-450.278 840.799 -453.884 838.994 -457.489 837.188 C-473.079 829.383 -488.709 821.684 -504.461 814.209 C-511.726 810.749 -518.956 807.216 -526.188 803.688 C-527.037 803.273 -527.887 802.858 -528.762 802.431 C-588.125 773.445 -588.125 773.445 -611.329 760.472 C-615.015 758.44 -618.735 756.472 -622.454 754.501 C-637.186 746.691 -651.678 738.545 -666 730 C-666.92 729.456 -667.84 728.912 -668.788 728.351 C-680.94 721.155 -692.812 713.58 -704.562 705.75 C-705.182 705.338 -705.801 704.926 -706.439 704.501 C-732.23 687.304 -756.795 668.555 -780 648 C-780.687 647.397 -781.375 646.793 -782.083 646.172 C-788.886 640.138 -795.368 633.819 -801.796 627.39 C-803.558 625.629 -805.329 623.877 -807.1 622.125 C-813.868 615.389 -820.067 608.491 -826 601 C-826.934 599.898 -827.876 598.802 -828.828 597.715 C-852.7 570.339 -871.744 537.751 -885 504 C-885.172 503.566 -885.172 503.566 -886.042 501.371 C-895.204 477.984 -901.165 453.8 -905 429 C-905.165 427.969 -905.33 426.938 -905.5 425.875 C-911.095 389.262 -910.121 349.627 -905 313 C-904.839 311.799 -904.678 310.599 -904.512 309.362 C-895.492 243.95 -871.041 179.438 -832 126 C-831.246 124.965 -830.492 123.93 -829.715 122.863 C-827.507 119.884 -825.263 116.937 -823 114 C-822.572 113.441 -822.144 112.881 -821.704 112.305 C-816.232 105.163 -810.623 98.279 -804.484 91.695 C-802.569 89.618 -800.724 87.515 -798.887 85.371 C-794.64 80.5 -790.089 75.939 -785.512 71.382 C-784.065 69.94 -782.623 68.493 -781.182 67.045 C-775.959 61.818 -770.65 56.763 -765 52 C-764.372 51.465 -763.743 50.93 -763.095 50.378 C-722.382 15.904 -675.675 -11.587 -626 -31 C-624.972 -31.407 -623.944 -31.813 -622.884 -32.232 C-561.169 -56.491 -494.113 -68.924 -428 -72 C-426.696 -72.062 -425.392 -72.123 -424.049 -72.187 C-327.505 -76.539 -229.569 -66.155 0 0 Z " fill="#ffffff" transform="translate(925,142)"/>
  <path d="M0 0 C9.24 0 18.48 0 28 0 C28.33 129.69 28.66 259.38 29 393 C89.39 393.33 149.78 393.66 212 394 C212 407.86 212 421.72 212 436 C151.61 436.33 91.22 436.66 29 437 C28.96 499.784 28.96 499.784 28.949 519.454 C28.949 519.802 28.949 519.802 28.948 521.56 C28.934 544.969 28.924 568.377 28.915 591.785 C28.915 592.55 28.915 593.314 28.914 594.101 C28.908 610.713 28.903 627.325 28.898 643.937 C28.895 652.084 28.893 660.231 28.89 668.378 C28.89 668.784 28.89 668.784 28.889 670.835 C28.881 697.087 28.866 723.339 28.847 749.591 C28.829 776.581 28.816 803.57 28.812 830.56 C28.812 834.377 28.811 838.194 28.81 842.01 C28.81 842.761 28.81 843.513 28.81 844.287 C28.807 856.352 28.798 868.418 28.786 880.483 C28.775 892.629 28.77 904.774 28.773 916.92 C28.774 923.494 28.772 930.069 28.762 936.643 C28.752 942.672 28.751 948.701 28.758 954.73 C28.759 956.901 28.757 959.073 28.75 961.244 C28.706 977.468 29.22 993.719 32.75 1009.625 C32.835 1010.012 32.835 1010.012 33.263 1011.972 C37.662 1031.169 45.558 1048.707 58 1064 C58.784 1065.052 59.568 1066.104 60.375 1067.188 C73.265 1080.998 92.303 1092.08 111.521 1093.139 C144.794 1094.279 170.906 1084.633 195.875 1062.445 C203.978 1054.695 212.952 1045.096 218 1035 C221.517 1036.319 224.653 1037.873 227.863 1039.82 C228.306 1040.088 228.306 1040.088 230.549 1041.441 C231.461 1041.997 232.373 1042.553 233.312 1043.125 C234.244 1043.688 235.175 1044.252 236.135 1044.832 C238.425 1046.218 240.714 1047.607 243 1049 C232.861 1074.927 214.946 1099.127 198 1121 C197.586 1121.539 197.171 1122.078 196.745 1122.633 C182.718 1140.866 167.352 1157.707 151.125 1174 C150.341 1174.789 149.556 1175.578 148.748 1176.391 C143.993 1181.133 139.103 1185.637 134 1190 C133.036 1190.846 132.072 1191.691 131.078 1192.562 C109.517 1211.145 85.916 1227.27 61 1241 C60.181 1241.455 59.362 1241.909 58.518 1242.378 C11.97 1268.055 -40.361 1282.21 -93.562 1282.25 C-94.373 1282.251 -95.184 1282.251 -96.019 1282.252 C-144.486 1282.188 -193.148 1270.555 -233 1242 C-233.581 1241.585 -234.163 1241.171 -234.762 1240.744 C-242.914 1234.86 -250.347 1228.277 -257.603 1221.334 C-258.794 1220.196 -259.999 1219.073 -261.207 1217.953 C-291.117 1189.444 -308.423 1148.242 -316.25 1108.375 C-316.401 1107.614 -316.552 1106.853 -316.708 1106.068 C-319.978 1088.25 -320.285 1070.516 -320.241 1052.456 C-320.241 1049.804 -320.243 1047.152 -320.246 1044.5 C-320.25 1038.764 -320.247 1033.028 -320.238 1027.292 C-320.226 1018.763 -320.226 1010.235 -320.227 1001.706 C-320.23 987.354 -320.223 973.003 -320.211 958.651 C-320.2 944.452 -320.192 930.252 -320.19 916.053 C-320.19 915.168 -320.189 914.284 -320.189 913.373 C-320.189 908.88 -320.188 904.387 -320.187 899.894 C-320.183 868.115 -320.17 836.336 -320.151 804.556 C-320.132 773.693 -320.118 742.83 -320.11 711.967 C-320.11 711.49 -320.11 711.49 -320.109 709.081 C-320.106 699.518 -320.104 689.955 -320.101 680.393 C-320.096 660.914 -320.091 641.435 -320.085 621.956 C-320.085 621.509 -320.085 621.509 -320.084 619.243 C-320.065 559.495 -320.033 499.748 -320 440 C-351.02 440 -382.04 440 -414 440 C-414 433.4 -414 426.8 -414 420 C-408.922 417.939 -403.844 415.92 -398.688 414.062 C-349.339 396.243 -304.467 368.897 -263 337 C-262.269 336.441 -261.539 335.881 -260.786 335.305 C-251.529 328.211 -242.419 320.992 -233.592 313.37 C-231.917 311.929 -230.233 310.501 -228.547 309.074 C-221.656 303.232 -214.929 297.25 -208.328 291.082 C-205.707 288.635 -203.036 286.249 -200.357 283.864 C-195.409 279.413 -190.656 274.802 -185.957 270.09 C-185.144 269.278 -184.332 268.466 -183.494 267.63 C-181.793 265.93 -180.093 264.228 -178.395 262.525 C-175.812 259.937 -173.224 257.354 -170.635 254.771 C-168.971 253.107 -167.308 251.442 -165.645 249.777 C-165.263 249.397 -165.263 249.397 -163.33 247.469 C-159.235 243.357 -155.299 239.162 -151.52 234.758 C-149.132 231.996 -146.622 229.35 -144.125 226.688 C-139.665 221.894 -135.437 216.975 -131.336 211.867 C-128.661 208.584 -125.898 205.387 -123.125 202.188 C-117.719 195.92 -112.569 189.485 -107.505 182.939 C-105.862 180.823 -104.207 178.716 -102.551 176.609 C-95.943 168.192 -89.487 159.708 -83.357 150.935 C-81.838 148.769 -80.302 146.615 -78.766 144.461 C-61.618 120.325 -46.047 95.062 -32 69 C-31.542 68.152 -31.083 67.303 -30.611 66.429 C-19.042 44.915 -8.494 22.915 0 0 Z " fill="#ffffff" transform="translate(3104,159)"/>
  <path d="M0 0 C89.263 -1.212 180.779 7.294 329.693 87.033 C329.955 87.245 329.955 87.245 331.284 88.317 C346.033 100.28 360.305 113.798 371.693 129.033 C372.554 130.154 373.416 131.275 374.278 132.396 C411.421 181.298 427.87 240.342 427.831 301.238 C427.833 303.166 427.836 305.095 427.839 307.023 C427.847 312.293 427.848 317.563 427.849 322.833 C427.851 328.528 427.859 334.222 427.866 339.917 C427.877 349.777 427.885 359.637 427.892 369.497 C427.902 385.086 427.923 400.675 427.945 416.264 C427.952 421.602 427.96 426.94 427.967 432.278 C427.968 432.611 427.968 432.611 427.97 434.297 C427.992 450.139 428.012 465.982 428.03 481.824 C428.031 482.17 428.031 482.17 428.033 483.923 C428.052 500.087 428.069 516.251 428.081 532.415 C428.082 533.11 428.082 533.806 428.083 534.522 C428.087 540.128 428.091 545.735 428.095 551.341 C428.113 575.127 428.142 598.914 428.182 622.7 C428.205 636.933 428.219 651.165 428.221 665.397 C428.223 675.149 428.236 684.901 428.258 694.653 C428.27 700.277 428.277 705.9 428.271 711.524 C428.266 716.677 428.274 721.83 428.294 726.983 C428.298 728.842 428.298 730.701 428.292 732.561 C428.238 750.676 430.352 766.133 443.31 779.775 C451.012 787.073 461.003 792.142 471.693 793.033 C472.421 793.096 473.149 793.16 473.9 793.225 C496.566 794.278 515.542 782.611 531.837 768.127 C536.627 763.543 540.64 758.265 544.693 753.033 C549.693 755.759 554.165 758.757 558.63 762.283 C559.218 762.742 559.807 763.201 560.413 763.674 C561.843 764.79 563.268 765.911 564.693 767.033 C563.802 772.58 561.326 776.536 558.443 781.283 C557.909 782.166 557.375 783.048 556.826 783.957 C551.799 792.115 546.211 799.722 540.195 807.172 C538.86 808.826 537.546 810.497 536.235 812.17 C523.12 828.379 507.619 843.855 490.693 856.033 C489.52 856.92 488.349 857.809 487.181 858.701 C419.552 909.967 328.417 933.054 244.299 922.393 C221.518 919.252 199.533 913.891 178.693 904.033 C178.327 903.861 178.327 903.861 176.479 902.991 C161.192 895.662 147.922 885.747 135.693 874.033 C134.949 873.341 134.205 872.649 133.439 871.936 C114.825 854.099 100.977 829.301 92.693 805.033 C92.693 804.043 92.693 803.053 92.693 802.033 C87.837 806.089 83.307 810.392 78.88 814.908 C74.328 819.528 69.604 823.733 64.517 827.768 C62.011 829.778 59.581 831.854 57.16 833.965 C49.736 840.404 41.863 846.076 33.756 851.621 C31.87 852.911 29.994 854.215 28.118 855.521 C-47.548 907.642 -145.728 938.1 -237.485 921.838 C-256.058 918.301 -274.063 912.777 -291.307 905.033 C-292.12 904.669 -292.932 904.305 -293.769 903.929 C-312.661 895.3 -329.919 883.972 -345.307 870.033 C-346.292 869.168 -347.277 868.303 -348.292 867.412 C-353.722 862.591 -358.748 857.685 -363.307 852.033 C-364.054 851.124 -364.8 850.216 -365.569 849.279 C-401.29 804.474 -411.595 749.082 -405.307 693.033 C-400.397 655.071 -385.437 619.459 -362.307 589.033 C-362.091 588.745 -362.091 588.745 -360.996 587.289 C-347.458 569.35 -331.598 551.92 -313.886 538.053 C-311.102 535.872 -308.431 533.584 -305.745 531.283 C-234.711 472.18 -143.05 437.837 56.193 376.283 C57.016 376.064 57.839 375.845 58.688 375.62 C60.99 375.008 63.294 374.403 65.599 373.799 C66.278 373.618 66.957 373.438 67.657 373.252 C70.433 372.53 72.808 372.033 75.693 372.033 C75.61 342.428 75.518 312.822 75.412 283.217 C75.4 279.707 75.388 276.197 75.375 272.686 C75.373 271.988 75.37 271.289 75.368 270.569 C75.328 259.316 75.295 248.063 75.265 236.81 C75.234 225.229 75.195 213.647 75.15 202.065 C75.125 195.575 75.103 189.085 75.089 182.594 C75.076 176.462 75.054 170.33 75.025 164.198 C75.016 161.969 75.01 159.741 75.008 157.512 C74.995 145.555 74.652 133.678 73.786 121.749 C73.746 121.204 73.746 121.204 73.547 118.446 C71.717 95.247 67.749 65.293 50.661 47.701 C34.681 34.162 15.971 31.512 -4.307 33.033 C-15.084 34.421 -25.199 38.399 -32.585 46.545 C-50.049 69.342 -50.185 100.791 -52.384 128.227 C-57.077 186.12 -66.058 243.781 -108.307 287.033 C-108.701 287.457 -108.701 287.457 -110.69 289.604 C-137.451 317.777 -177.359 331.908 -215.557 333.318 C-251.915 334.102 -288.356 324.489 -315.238 298.992 C-316.599 297.677 -317.953 296.355 -319.307 295.033 C-320.023 294.38 -320.738 293.726 -321.475 293.053 C-342.348 273.513 -354.311 242.133 -355.432 213.91 C-355.782 198.717 -355.703 183.891 -352.307 169.033 C-352.141 168.291 -351.975 167.549 -351.804 166.784 C-345.264 138.58 -330.158 114.781 -310.307 94.033 C-309.432 93.105 -308.557 92.177 -307.655 91.221 C-243.331 24.724 -136.636 8.285 -6.349 0.092 C-4.233 0.06 -2.116 0.03 0 0 Z M67.091 408.158 C65.97 408.613 64.848 409.068 63.693 409.537 C62.497 410.03 61.3 410.524 60.068 411.033 C59.456 411.285 58.844 411.537 58.214 411.796 C23.974 425.914 -6.329 444.503 -33.307 470.033 C-33.772 470.471 -33.772 470.471 -36.124 472.686 C-43.267 479.605 -49.4 487.049 -55.307 495.033 C-55.707 495.572 -56.107 496.111 -56.518 496.666 C-62.899 505.36 -68.291 514.502 -73.307 524.033 C-73.646 524.671 -73.985 525.31 -74.334 525.967 C-84.72 545.832 -91.353 568.023 -95.307 590.033 C-95.47 590.914 -95.632 591.794 -95.799 592.701 C-103.892 639.005 -100.561 692.83 -74.307 733.033 C-56.71 758.039 -32.462 773.872 -2.487 779.787 C27.131 784.283 58.028 778.529 82.693 761.033 C82.583 760.313 82.473 759.592 82.36 758.85 C81.169 750.779 80.123 742.693 79.13 734.596 C79.003 733.585 78.877 732.575 78.746 731.533 C76.662 714.296 76.525 697.189 76.492 679.845 C76.484 676.162 76.47 672.479 76.457 668.796 C76.436 662.432 76.417 656.068 76.402 649.703 C76.379 640.502 76.351 631.3 76.321 622.099 C76.274 607.166 76.23 592.233 76.19 577.301 C76.15 562.804 76.109 548.307 76.065 533.81 C76.062 532.915 76.059 532.02 76.057 531.098 C76.043 526.607 76.029 522.115 76.015 517.624 C75.902 480.427 75.795 443.23 75.693 406.033 C72.26 406.033 70.265 406.866 67.091 408.158 Z " fill="#ffffff" transform="translate(1507.3074951171875,518.966796875)"/>
  <path d="M0 0 C0.92 0 1.84 0 2.787 0.001 C25.051 0.052 46.435 2.746 67.75 9.375 C68.136 9.493 68.136 9.493 70.091 10.088 C97.311 18.521 122.772 32.252 144.75 50.375 C145.31 50.833 145.87 51.292 146.447 51.764 C193.549 90.545 222.992 145.781 229.75 206.375 C229.816 206.945 229.816 206.945 230.148 209.832 C234.055 250.958 225.998 292.063 208.75 329.375 C208.581 329.741 208.581 329.741 207.726 331.594 C193.195 362.691 170.824 391.247 143.75 412.375 C142.755 413.176 141.76 413.976 140.734 414.801 C112.516 437.305 78.982 452.082 43.75 459.375 C42.915 459.553 42.08 459.731 41.22 459.914 C15.353 465.159 -15.461 464.849 -41.25 459.375 C-42.076 459.203 -42.902 459.032 -43.752 458.855 C-83.369 450.361 -119.13 431.215 -149.25 404.375 C-149.8 403.888 -150.35 403.401 -150.917 402.9 C-157.119 397.395 -162.962 391.781 -168.25 385.375 C-168.983 384.529 -169.717 383.684 -170.473 382.812 C-182.216 369.115 -191.994 354.408 -200.25 338.375 C-200.46 337.97 -200.46 337.97 -201.523 335.923 C-229.691 281.102 -233.693 217.181 -215.654 158.565 C-205.605 127.342 -188.879 98.63 -166.438 74.715 C-164.509 72.652 -162.687 70.54 -160.875 68.375 C-121.641 23.601 -58.467 -0.124 0 0 Z " fill="#ffffff" transform="translate(3693.25,978.625)"/>
</svg>
